<?xml version='1.0' encoding='utf-8'?>
<svg width="1200" height="800" xmlns="http://www.w3.org/2000/svg" viewBox="0 0 1200 800">
  <title>Phase 2A TS18 Integration</title>
  <rect width="1200" height="800" fill="white" />
  <text x="600" y="30" font-family="Arial" font-size="24" fill="black" text-anchor="middle">Phase 2A — TS18 Sub-Integration Build-Up</text>
  <text x="600" y="60" font-family="Arial" font-size="16" fill="#666" text-anchor="middle">Incremental Build-Up with Klystron + Dummy Load</text>
  <rect x="100" y="120" width="200" height="60" fill="#dae8fc" stroke="black" stroke-width="2" rx="5" />
  <text x="110" y="145" font-family="Arial" font-size="14" fill="black" text-anchor="start">① HVPS Combined</text>
  <text x="110" y="165" font-family="Arial" font-size="11" fill="#333" text-anchor="start">PLC + SCR Gate Driver</text>
  <line x1="200" y1="180" x2="200" y2="200" stroke="#666" stroke-width="2" />
  <polygon points="200,200 204.0,192.0 196.0,192.0" fill="#666" stroke="#666" />
  <rect x="100" y="200" width="200" height="60" fill="#e8f5e8" stroke="black" stroke-width="2" rx="5" />
  <text x="110" y="225" font-family="Arial" font-size="14" fill="black" text-anchor="start">② + Heater Controller</text>
  <text x="110" y="245" font-family="Arial" font-size="11" fill="#333" text-anchor="start">Coordination</text>
  <line x1="200" y1="260" x2="200" y2="280" stroke="#666" stroke-width="2" />
  <polygon points="200,280 204.0,272.0 196.0,272.0" fill="#666" stroke="#666" />
  <rect x="100" y="280" width="200" height="60" fill="#fff2cc" stroke="black" stroke-width="2" rx="5" />
  <text x="110" y="305" font-family="Arial" font-size="14" fill="black" text-anchor="start">③ + Interface Chassis</text>
  <text x="110" y="325" font-family="Arial" font-size="11" fill="#333" text-anchor="start">Hardware interlock</text>
  <line x1="200" y1="340" x2="200" y2="360" stroke="#666" stroke-width="2" />
  <polygon points="200,360 204.0,352.0 196.0,352.0" fill="#666" stroke="#666" />
  <rect x="100" y="360" width="200" height="60" fill="#fce4ec" stroke="black" stroke-width="2" rx="5" />
  <text x="110" y="385" font-family="Arial" font-size="14" fill="black" text-anchor="start">④ + Kly MPS PLC</text>
  <text x="110" y="405" font-family="Arial" font-size="11" fill="#333" text-anchor="start">Round-trip</text>
  <line x1="200" y1="420" x2="200" y2="440" stroke="#666" stroke-width="2" />
  <polygon points="200,440 204.0,432.0 196.0,432.0" fill="#666" stroke="#666" />
  <rect x="100" y="440" width="200" height="60" fill="#f3e5f5" stroke="black" stroke-width="2" rx="5" />
  <text x="110" y="465" font-family="Arial" font-size="14" fill="black" text-anchor="start">⑤ + Waveform Buffer</text>
  <text x="110" y="485" font-family="Arial" font-size="11" fill="#333" text-anchor="start">System</text>
  <line x1="200" y1="500" x2="200" y2="520" stroke="#666" stroke-width="2" />
  <polygon points="200,520 204.0,512.0 196.0,512.0" fill="#666" stroke="#666" />
  <rect x="100" y="520" width="200" height="60" fill="#d5e8d4" stroke="black" stroke-width="2" rx="5" />
  <text x="110" y="545" font-family="Arial" font-size="14" fill="black" text-anchor="start">⑥ + Software Stack</text>
  <text x="110" y="565" font-family="Arial" font-size="11" fill="#333" text-anchor="start">Full stack</text>
  <line x1="200" y1="580" x2="200" y2="600" stroke="#666" stroke-width="2" />
  <polygon points="200,600 204.0,592.0 196.0,592.0" fill="#666" stroke="#666" />
  <rect x="100" y="600" width="200" height="60" fill="#ffe6cc" stroke="black" stroke-width="2" rx="5" />
  <text x="110" y="625" font-family="Arial" font-size="14" fill="black" text-anchor="start">⑦ RF Power Ramp</text>
  <text x="110" y="645" font-family="Arial" font-size="11" fill="#333" text-anchor="start">Incremental</text>
  <text x="500" y="150" font-family="Arial" font-size="18" fill="black" text-anchor="start">TS18 Testing Capabilities</text>
  <text x="500" y="180" font-family="Arial" font-size="12" fill="#006600" text-anchor="start">✓ HVPS regulation and control</text>
  <text x="500" y="205" font-family="Arial" font-size="12" fill="#006600" text-anchor="start">✓ Heater warm-up sequences</text>
  <text x="500" y="230" font-family="Arial" font-size="12" fill="#006600" text-anchor="start">✓ Interface chassis logic</text>
  <text x="500" y="255" font-family="Arial" font-size="12" fill="#006600" text-anchor="start">✓ MPS permit/heartbeat loops</text>
  <text x="500" y="280" font-family="Arial" font-size="12" fill="#006600" text-anchor="start">✓ Waveform buffer acquisition</text>
  <text x="500" y="305" font-family="Arial" font-size="12" fill="#006600" text-anchor="start">✓ Software state machine</text>
  <text x="500" y="350" font-family="Arial" font-size="16" fill="#cc0000" text-anchor="start">Cannot Test (Requires Cavities)</text>
  <text x="500" y="380" font-family="Arial" font-size="12" fill="#cc0000" text-anchor="start">✗ LLRF9 vector-sum feedback</text>
  <text x="500" y="405" font-family="Arial" font-size="12" fill="#cc0000" text-anchor="start">✗ Cavity tuner control</text>
  <text x="500" y="430" font-family="Arial" font-size="12" fill="#cc0000" text-anchor="start">✗ Arc detection systems</text>
  <text x="500" y="455" font-family="Arial" font-size="12" fill="#cc0000" text-anchor="start">✗ Full 24-channel RF monitoring</text>
</svg>