<?xml version='1.0' encoding='utf-8'?>
<svg width="1400" height="1000" xmlns="http://www.w3.org/2000/svg" viewBox="0 0 1400 1000">
  <title>Master Dependency Network</title>
  <rect width="1400" height="1000" fill="white" />
  <text x="700" y="30" font-family="Arial" font-size="24" fill="black" text-anchor="middle">Master Dependency Network — Full Project Flow</text>
  <text x="700" y="60" font-family="Arial" font-size="16" fill="#666" text-anchor="middle">Critical Path and Gate Dependencies</text>
  <rect x="100" y="120" width="200" height="60" fill="#dae8fc" stroke="black" stroke-width="2" rx="5" />
  <text x="110" y="140" font-family="Arial" font-size="14" fill="black" text-anchor="start">SWA2: SW Modules</text>
  <text x="110" y="160" font-family="Arial" font-size="10" fill="#333" text-anchor="start">Software modules ready</text>
  <rect x="350" y="120" width="200" height="60" fill="#fff2cc" stroke="black" stroke-width="2" rx="5" />
  <text x="360" y="140" font-family="Arial" font-size="14" fill="black" text-anchor="start">IC5: Interface Chassis</text>
  <text x="360" y="160" font-family="Arial" font-size="10" fill="#333" text-anchor="start">Standalone test complete</text>
  <rect x="600" y="120" width="200" height="60" fill="#d5e8d4" stroke="black" stroke-width="2" rx="5" />
  <text x="610" y="140" font-family="Arial" font-size="14" fill="black" text-anchor="start">SWA3: SW Integration</text>
  <text x="610" y="160" font-family="Arial" font-size="10" fill="#333" text-anchor="start">All SW tests pass</text>
  <rect x="850" y="120" width="200" height="60" fill="#ffe6cc" stroke="black" stroke-width="2" rx="5" />
  <text x="860" y="140" font-family="Arial" font-size="14" fill="black" text-anchor="start">TS18 Gates</text>
  <text x="860" y="160" font-family="Arial" font-size="10" fill="#333" text-anchor="start">Sequential build-up</text>
  <rect x="1100" y="120" width="200" height="60" fill="#fce4ec" stroke="black" stroke-width="2" rx="5" />
  <text x="1110" y="140" font-family="Arial" font-size="14" fill="black" text-anchor="start">SPEAR3 Gates</text>
  <text x="1110" y="160" font-family="Arial" font-size="10" fill="#333" text-anchor="start">Cavity integration</text>
  <rect x="100" y="250" width="1200" height="80" fill="#f0f0f0" stroke="black" stroke-width="2" rx="5" />
  <text x="110" y="270" font-family="Arial" font-size="14" fill="black" text-anchor="start">Per-Subsystem Tests</text>
  <text x="110" y="290" font-family="Arial" font-size="10" fill="#333" text-anchor="start">MPS4, WFB5, L5, GAL5, ARC6 - All depend on IC5</text>
  <rect x="100" y="380" width="280" height="200" fill="#fff2cc" stroke="black" stroke-width="2" rx="5" />
  <text x="110" y="400" font-family="Arial" font-size="14" fill="black" text-anchor="start">TS18 Build-Up</text>
  <text x="110" y="420" font-family="Arial" font-size="10" fill="#333" text-anchor="start">① HVPS Combined</text>
  <text x="110" y="435" font-family="Arial" font-size="10" fill="#333" text-anchor="start">② + Heater</text>
  <text x="110" y="450" font-family="Arial" font-size="10" fill="#333" text-anchor="start">③ + Interface</text>
  <text x="110" y="465" font-family="Arial" font-size="10" fill="#333" text-anchor="start">④ + MPS</text>
  <text x="110" y="480" font-family="Arial" font-size="10" fill="#333" text-anchor="start">⑤ + Waveform</text>
  <text x="110" y="495" font-family="Arial" font-size="10" fill="#333" text-anchor="start">⑥ + Software</text>
  <text x="110" y="510" font-family="Arial" font-size="10" fill="#333" text-anchor="start">⑦ RF Power</text>
  <rect x="420" y="380" width="280" height="200" fill="#d5e8d4" stroke="black" stroke-width="2" rx="5" />
  <text x="430" y="400" font-family="Arial" font-size="14" fill="black" text-anchor="start">SPEAR3 Integration</text>
  <text x="430" y="420" font-family="Arial" font-size="10" fill="#333" text-anchor="start">① + LLRF9 Units</text>
  <text x="430" y="435" font-family="Arial" font-size="10" fill="#333" text-anchor="start">② + Galil Tuner</text>
  <text x="430" y="450" font-family="Arial" font-size="10" fill="#333" text-anchor="start">③ + Arc Detection</text>
  <text x="430" y="465" font-family="Arial" font-size="10" fill="#333" text-anchor="start">④ End-to-End</text>
  <rect x="740" y="380" width="280" height="200" fill="#ffe6cc" stroke="black" stroke-width="2" rx="5" />
  <text x="750" y="400" font-family="Arial" font-size="14" fill="black" text-anchor="start">Final Commissioning</text>
  <text x="750" y="420" font-family="Arial" font-size="10" fill="#333" text-anchor="start">PPS Connection</text>
  <text x="750" y="435" font-family="Arial" font-size="10" fill="#333" text-anchor="start">Power Ramp</text>
  <text x="750" y="450" font-family="Arial" font-size="10" fill="#333" text-anchor="start">Operator Training</text>
  <text x="750" y="465" font-family="Arial" font-size="10" fill="#333" text-anchor="start">Full Operation</text>
  <rect x="1060" y="380" width="200" height="200" fill="#ffebee" stroke="black" stroke-width="2" rx="5" />
  <text x="1070" y="400" font-family="Arial" font-size="14" fill="black" text-anchor="start">PPS Approval Track</text>
  <text x="1070" y="420" font-family="Arial" font-size="10" fill="#333" text-anchor="start">Independent</text>
  <text x="1070" y="435" font-family="Arial" font-size="10" fill="#333" text-anchor="start">Safety Track</text>
  <text x="1070" y="450" font-family="Arial" font-size="10" fill="#333" text-anchor="start">Required for</text>
  <text x="1070" y="465" font-family="Arial" font-size="10" fill="#333" text-anchor="start">Commissioning</text>
  <line x1="200" y1="150" x2="350" y2="150" stroke="#cc0000" stroke-width="3" />
  <polygon points="350,150 342.0,146.0 342.0,154.0" fill="#cc0000" stroke="#cc0000" />
  <line x1="550" y1="150" x2="600" y2="150" stroke="#cc0000" stroke-width="3" />
  <polygon points="600,150 592.0,146.0 592.0,154.0" fill="#cc0000" stroke="#cc0000" />
  <line x1="800" y1="150" x2="850" y2="150" stroke="#cc0000" stroke-width="3" />
  <polygon points="850,150 842.0,146.0 842.0,154.0" fill="#cc0000" stroke="#cc0000" />
  <line x1="1050" y1="150" x2="1100" y2="150" stroke="#cc0000" stroke-width="3" />
  <polygon points="1100,150 1092.0,146.0 1092.0,154.0" fill="#cc0000" stroke="#cc0000" />
  <line x1="700" y1="250" x2="700" y2="380" stroke="#cc0000" stroke-width="3" />
  <polygon points="700,380 704.0,372.0 696.0,372.0" fill="#cc0000" stroke="#cc0000" />
  <text x="700" y="650" font-family="Arial" font-size="16" fill="#cc0000" text-anchor="middle">Critical Path Dependencies</text>
  <text x="700" y="680" font-family="Arial" font-size="12" fill="#cc0000" text-anchor="middle">Red arrows show critical sequencing - delays propagate through entire project</text>
</svg>